<svg xmlns="http://www.w3.org/2000/svg" xmlns:xlink="http://www.w3.org/1999/xlink" version="1.1" x="0px" y="0px" viewBox="216 534.5 100 100" enable-background="new 216 534.5 100 100" xml:space="preserve"><path fill="#000000" d="M290.146,545.588l-6.464-4.814c-0.132-0.129-0.303-0.207-0.482-0.182l-11.5,0.079  c-0.281,0.002-0.535,0.171-0.646,0.43l-2.183,5.096c-0.005,0.01-0.009,0.02-0.014,0.029l-4.079,9.515l-33.328,29.588  c-0.25,0.223-0.311,0.589-0.146,0.879c0.128,0.228,0.366,0.36,0.616,0.36c0.07,0,0.143-0.011,0.212-0.033l26.205-8.228  c-7.128,14.723-23.73,48.896-24.621,50.178l0.016,0.013c-0.389,0.466-0.281,0.589-0.005,0.903c0.139,0.157,0.335,0.238,0.532,0.238  c0.158,0,0.318-0.052,0.449-0.157c0.016-0.012,0.041-0.043,0.074-0.093l0.01,0.01c0.584-0.631,21.805-21.053,32.943-31.764  c0.085-0.081,0.138-0.186,0.173-0.296c0.005-0.014,0.018-0.022,0.021-0.036l3.645-14.027l9.644-0.111  c0.257-0.003,0.492-0.146,0.615-0.371c0.122-0.226,0.113-0.5-0.024-0.718l-3.835-6.049l3.395-3.747  c0.148-0.101,0.22-0.228,0.273-0.383c0.001-0.004,0.003-0.007,0.004-0.011c0.001-0.002,0.001-0.003,0.002-0.005  c0.061-0.179,0.171-0.515-0.788-6.754l-0.674-11.784c1.273-0.425,2.657-0.886,3.505-1.168l1.338,8.502  c0.05,0.314,0.303,0.558,0.619,0.594c0.027,0.003,0.055,0.005,0.081,0.005c0.286,0,0.548-0.174,0.657-0.443l3.989-9.87  c0.017-0.039,0.03-0.08,0.039-0.123c0.013-0.057,0.019-0.113,0.018-0.17v-4.513C290.433,545.933,290.326,545.722,290.146,545.588z   M272.174,542.085l10.417-0.071c0.514,3.64,0.983,7.486,1.02,8.694c-1.31,0.437-5.177,1.725-6.442,2.146l-6.808-6.536  L272.174,542.085z M279.505,565.636c0.333,2.186,0.655,4.512,0.748,5.491c-0.356,0.036-1.032,0.075-2.289,0.075  c-0.479,0-0.906-0.006-1.19-0.011l-8.871-12.646L279.505,565.636z M265.243,557.224l10.021,14.283l-40.396,12.684L265.243,557.224z   M267.114,594.81l-6.61-17.184l12.06-3.786L267.114,594.81z M238.903,623.432c-0.726,0.7-1.394,1.346-1.991,1.924  c3.484-6.888,11.064-22.389,22.63-46.284l6.873,17.868c-1.601,1.538-8.88,8.539-16.171,15.56  C246.118,616.473,241.993,620.447,238.903,623.432z M279.932,581.761l-7.226,0.083l4.281-4.727L279.932,581.761z M272.412,580.058  l1.739-6.695c0.002-0.007,0-0.015,0.001-0.021l2.348-0.737c0.238,0.006,0.807,0.017,1.464,0.017c0.457,0,0.849-0.005,1.196-0.013  L272.412,580.058z M279.371,563.894l-13.111-8.012l3.504-8.171l6.731,6.462c0.191,0.184,0.467,0.244,0.715,0.161  c0,0,0.662-0.221,1.585-0.528L279.371,563.894z M286.031,557.928l-0.953-6.061l3.549-0.359L286.031,557.928z M289.015,550.044  l-4.007,0.405c-0.027-1.176-0.274-3.375-0.862-7.564l4.869,3.627V550.044z"></path></svg>